FFmpeg version SVN-r25716, Copyright (c) 2000-2010 the FFmpeg developers  built on Nov 10 2010 12:23:18 with gcc 4.1.2 20080704 (Red Hat 4.1.2-48)  configuration: --enable-libmp3lame --enable-shared --disable-mmx --arch=x86_64  libavutil     50.33. 0 / 50.33. 0  libavcore      0.12. 1 /  0.12. 1  libavcodec    52.94. 4 / 52.94. 4  libavformat   52.84. 0 / 52.84. 0  libavdevice   52. 2. 2 / 52. 2. 2  libavfilter    1.59. 0 /  1.59. 0  libswscale     0.12. 0 /  0.12. 0Input #0, avi, from '/RAID10/data/converted_video_files/47536.avi':  Duration: 00:00:05.56, start: 0.000000, bitrate: 283091 kb/s    Stream #0.0: Video: msvideo1, rgb555le, 1024x1024, 30 tbr, 30 tbn, 30 tbc[buffer @ 0x16020520] w:1024 h:1024 pixfmt:rgb555le[ffsink @ 0x1601fb40] auto-inserting filter 'auto-inserted scaler 0' between the filter 'src' and the filter 'out'[scale @ 0x1601ea70] w:1024 h:1024 fmt:rgb555le -> w:1024 h:1024 fmt:yuv420p flags:0x4Output #0, flv, to '/RAID10/data/converted_video_files/47536.flv':  Metadata:    encoder         : Lavf52.84.0    Stream #0.0: Video: flv, yuv420p, 1024x1024, q=2-31, 600 kb/s, 1k tbn, 24 tbcStream mapping:  Stream #0.0 -> #0.0Press [q] to stop encodingframe=    5 fps=  0 q=9.4 size=    1115kB time=0.21 bitrate=43917.3kbits/s dup=0 drop=1    frame=    8 fps=  6 q=18.4 size=    1241kB time=0.33 bitrate=30539.6kbits/s dup=0 drop=1    frame=   12 fps=  7 q=11.8 size=    1462kB time=0.50 bitrate=23960.1kbits/s dup=0 drop=3    frame=   18 fps=  8 q=17.2 size=    1707kB time=0.75 bitrate=18641.1kbits/s dup=0 drop=4    frame=   25 fps=  9 q=31.0 size=    1773kB time=1.04 bitrate=13939.1kbits/s dup=0 drop=6    frame=   31 fps=  9 q=31.0 size=    1808kB time=1.29 bitrate=11465.5kbits/s dup=0 drop=7    frame=   40 fps= 10 q=31.0 size=    1820kB time=1.67 bitrate=8941.8kbits/s dup=0 drop=9    frame=   49 fps= 11 q=31.0 size=    1858kB time=2.04 bitrate=7453.0kbits/s dup=0 drop=12    frame=   55 fps= 11 q=31.0 size=    1892kB time=2.29 bitrate=6763.3kbits/s dup=0 drop=13    frame=   64 fps= 12 q=31.0 size=    1903kB time=2.67 bitrate=5846.6kbits/s dup=0 drop=15    frame=   71 fps= 12 q=31.0 size=    1940kB time=2.96 bitrate=5371.4kbits/s dup=0 drop=17    frame=   76 fps= 12 q=31.0 size=    1945kB time=3.17 bitrate=5031.9kbits/s dup=0 drop=19    frame=   84 fps= 12 q=31.0 size=    1983kB time=3.50 bitrate=4641.1kbits/s dup=0 drop=21    frame=   92 fps= 12 q=31.0 size=    2019kB time=3.83 bitrate=4315.9kbits/s dup=0 drop=23    frame=  100 fps= 12 q=31.0 size=    2029kB time=4.17 bitrate=3989.1kbits/s dup=0 drop=25    frame=  106 fps= 12 q=31.0 size=    2064kB time=4.42 bitrate=3827.1kbits/s dup=0 drop=26    frame=  114 fps= 12 q=24.8 size=    2098kB time=4.75 bitrate=3618.5kbits/s dup=0 drop=28    frame=  123 fps= 13 q=31.0 size=    2111kB time=5.12 bitrate=3373.6kbits/s dup=0 drop=30    frame=  129 fps= 13 q=31.0 size=    2145kB time=5.38 bitrate=3268.9kbits/s dup=0 drop=32    frame=  134 fps= 13 q=31.0 Lsize=    2150kB time=5.58 bitrate=3154.6kbits/s dup=0 drop=33    video:2148kB audio:0kB global headers:0kB muxing overhead 0.107039%